# xmcd CD database file
#
# Track frame offsets:
#	150
#	13320
#	27820
#	40605
#	53570
#	64725
#	76950
#	88887
#	101497
#	113445
#	125695
#	136722
#	148825
#	160957
#	173080
#	184437
#	196737
#	209062
#	220780
#	233485
#	244842
#	256130
#
# Disc length: 3567 seconds
#
# Revision: 0
# Processed by: cddbd v1.4PL0 Copyright (c) Steve Scherf et al.
# Submitted via: CDex 1.50beta10
#
DISCID=2e0ded16
DTITLE=Putney Dandridge - Timeless Historical Presents Putney Dandridge Disc 2
DYEAR=1936
DGENRE=Jazz
TTITLE0=It's A Sin To Tell A Lie
TTITLE1=All My Life
TTITLE2=Ol' Man River
TTITLE3=Why Was I Born
TTITLE4=There Foolish Things
TTITLE5=Cross Patch
TTITLE6=A Star Fell Out of Heaven
TTITLE7=Mary Had A Little Lamb
TTITLE8=Here Comes the Pappy (with the Wrong Kind of Load)
TTITLE9=If We Never Met Again
TTITLE10=Sing, Baby, Sing
TTITLE11=You Turned The Tables On Me
TTITLE12=It's The Gypsy in Me
TTITLE13=When A Lady Meets A Gentleman Down South
TTITLE14=A High Hat, A Piccolo and A Cane
TTITLE15=Easy To Love
TTITLE16=You Do The Darnedest Things, Baby
TTITLE17=The Skeleton In The Closet
TTITLE18=I'm In A Dancing Mood
TTITLE19=With Plenty of Money and You (Oh Baby, What I Couldn't Do)
TTITLE20=That Foolish Feeling
TTITLE21=Gee! But You're Swell
EXTD=YEAR: 1936
EXTT0=
EXTT1=
EXTT2=
EXTT3=
EXTT4=
EXTT5=
EXTT6=
EXTT7=
EXTT8=
EXTT9=
EXTT10=
EXTT11=
EXTT12=
EXTT13=
EXTT14=
EXTT15=
EXTT16=
EXTT17=
EXTT18=
EXTT19=
EXTT20=
EXTT21=
PLAYORDER=
